HIERARCHY
ROOT Hips
{
	OFFSET 0.00000 0.00000 0.00000
	CHANNELS 6 Xposition Yposition Zposition Zrotation Yrotation Xrotation 
	JOINT LHipJoint
	{
		OFFSET 0 0 0
		CHANNELS 3 Zrotation Yrotation Xrotation
		JOINT LeftUpLeg
		{
			OFFSET 1.57093 -1.69714 0.87455
			CHANNELS 3 Zrotation Yrotation Xrotation
			JOINT LeftLeg
			{
				OFFSET 2.48056 -6.81529 0.00000
				CHANNELS 3 Zrotation Yrotation Xrotation
				JOINT LeftFoot
				{
					OFFSET 2.62558 -7.21374 0.00000
					CHANNELS 3 Zrotation Yrotation Xrotation
					JOINT LeftToeBase
					{
						OFFSET 0.17911 -0.49210 2.16707
						CHANNELS 3 Zrotation Yrotation Xrotation
						End Site
						{
							OFFSET 0.00000 -0.00000 1.11848
						}
					}
				}
			}
		}
	}
	JOINT RHipJoint
	{
		OFFSET 0 0 0
		CHANNELS 3 Zrotation Yrotation Xrotation
		JOINT RightUpLeg
		{
			OFFSET -1.69739 -1.69715 0.87455
			CHANNELS 3 Zrotation Yrotation Xrotation
			JOINT RightLeg
			{
				OFFSET -2.33658 -6.41972 0.00000
				CHANNELS 3 Zrotation Yrotation Xrotation
				JOINT RightFoot
				{
					OFFSET -2.60856 -7.16696 0.00000
					CHANNELS 3 Zrotation Yrotation Xrotation
					JOINT RightToeBase
					{
						OFFSET -0.20854 -0.57296 2.11053
						CHANNELS 3 Zrotation Yrotation Xrotation
						End Site
						{
							OFFSET -0.00000 -0.00000 1.09848
						}
					}
				}
			}
		}
	}
	JOINT LowerBack
	{
		OFFSET 0 0 0
		CHANNELS 3 Zrotation Yrotation Xrotation
		JOINT Spine
		{
			OFFSET 0.02563 2.15732 -0.03270
			CHANNELS 3 Zrotation Yrotation Xrotation
			JOINT Spine1
			{
				OFFSET 0.00281 2.14662 0.09285
				CHANNELS 3 Zrotation Yrotation Xrotation
				JOINT Neck
				{
					OFFSET 0 0 0
					CHANNELS 3 Zrotation Yrotation Xrotation
					JOINT Neck1
					{
						OFFSET -0.04440 1.68397 0.17601
						CHANNELS 3 Zrotation Yrotation Xrotation
						JOINT Head
						{
							OFFSET 0.06040 1.66995 -0.35615
							CHANNELS 3 Zrotation Yrotation Xrotation
							End Site
							{
								OFFSET 0.02405 1.72189 -0.14044
							}
						}
					}
				}
				JOINT LeftShoulder
				{
					OFFSET 0 0 0
					CHANNELS 3 Zrotation Yrotation Xrotation
					JOINT LeftArm
					{
						OFFSET 2.98955 1.90907 -0.21660
						CHANNELS 3 Zrotation Yrotation Xrotation
						JOINT LeftForeArm
						{
							OFFSET 4.91377 -0.00000 0.00000
							CHANNELS 3 Zrotation Yrotation Xrotation
							JOINT LeftHand
							{
								OFFSET 3.00291 -0.00000 -0.00000
								CHANNELS 3 Zrotation Yrotation Xrotation
								JOINT LeftFingerBase
								{
									OFFSET 0 0 0
									CHANNELS 3 Zrotation Yrotation Xrotation
									JOINT LeftHandIndex1
									{
										OFFSET 0.45092 -0.00000 -0.00000
										CHANNELS 3 Zrotation Yrotation Xrotation
										End Site
										{
											OFFSET 0.36355 -0.00000 -0.00000
										}
									}
								}
								JOINT LThumb
								{
									OFFSET 0 0 0
									CHANNELS 3 Zrotation Yrotation Xrotation
									End Site
									{
										OFFSET 0.36910 -0.00000 0.36910
									}
								}
							}
						}
					}
				}
				JOINT RightShoulder
				{
					OFFSET 0 0 0
					CHANNELS 3 Zrotation Yrotation Xrotation
					JOINT RightArm
					{
						OFFSET -2.80452 1.90886 -0.21152
						CHANNELS 3 Zrotation Yrotation Xrotation
						JOINT RightForeArm
						{
							OFFSET -4.86725 -0.00000 0.00000
							CHANNELS 3 Zrotation Yrotation Xrotation
							JOINT RightHand
							{
								OFFSET -3.17144 -0.00000 -0.00000
								CHANNELS 3 Zrotation Yrotation Xrotation
								JOINT RightFingerBase
								{
									OFFSET 0 0 0
									CHANNELS 3 Zrotation Yrotation Xrotation
									JOINT RightHandIndex1
									{
										OFFSET -0.41937 -0.00000 -0.00000
										CHANNELS 3 Zrotation Yrotation Xrotation
										End Site
										{
											OFFSET -0.33810 -0.00000 -0.00000
										}
									}
								}
								JOINT RThumb
								{
									OFFSET 0 0 0
									CHANNELS 3 Zrotation Yrotation Xrotation
									End Site
									{
										OFFSET -0.34327 -0.00000 0.34327
									}
								}
							}
						}
					}
				}
			}
		}
	}
}
MOTION
Frames: 14
Frame Time: .0083333
2.5536 15.0260 8.8203 14.5645 27.1995 114.1740 0.0000 0.0000 0.0000 -13.6099 -23.6845 -48.0536 2.4123 9.6767 27.9360 -0.0373 13.8177 -19.1983 0.9994 -6.3619 -17.8383 0.0000 0.0000 0.0000 13.2375 13.6045 -40.1456 -8.3785 -16.3907 53.9149 -4.6857 -9.3266 39.5835 -2.5486 -9.9258 28.7368 14.9883 5.8390 -16.8683 3.3448 5.5772 -7.1736 -3.6751 2.7134 2.5608 3.9084 4.4643 -16.5007 -3.9267 6.3076 27.2685 -1.1744 2.7242 11.9418 -0.0000 0.0000 0.0000 -18.1916 28.2604 125.8271 20.4325 -31.1599 -5.7535 -0.0000 0.0000 -60.8393 13.7320 -11.1820 -2.7132 -7.1250 0.0000 -0.0000 -9.3968 18.5632 5.9975 -0.0000 0.0000 0.0000 -70.6608 44.5224 -78.9710 -14.0958 22.8715 -2.8652 0.0000 -0.0000 -0.1778 -31.7637 -2.6443 1.6362 7.1250 -0.0000 -0.0000 -4.2040 -33.0685 -1.2320
2.5464 15.0290 8.7992 14.4136 27.0309 114.3560 0.0000 0.0000 0.0000 -12.2334 -25.4234 -48.2694 2.0794 9.0296 25.8881 -0.1215 14.6652 -19.4517 1.0683 -6.5708 -18.4499 0.0000 0.0000 0.0000 12.8268 13.2743 -40.4013 -8.7683 -16.6563 55.2853 -4.8203 -9.2974 40.1888 -2.5190 -9.8725 28.5647 15.0019 5.7656 -16.8228 3.2346 5.4901 -7.2144 -3.8269 2.6614 2.4894 4.0414 4.5390 -16.6675 -3.9204 6.3642 27.2922 -1.1828 2.7583 11.9927 0.0000 -0.0000 0.0000 -16.4911 27.5949 127.5604 19.8791 -30.4964 -5.4698 -0.0000 0.0000 -62.0782 13.8520 -10.3300 -2.5318 -7.1250 0.0000 -0.0000 -9.3336 19.4198 5.7759 0.0000 -0.0000 0.0000 -70.4099 44.5991 -79.0571 -13.9915 22.7226 -2.8248 0.0000 0.0000 0.3879 -31.6360 -2.7048 1.6652 7.1250 -0.0000 -0.0000 -4.1020 -33.1361 -1.1952
2.5315 15.0328 8.7772 14.1680 26.8821 114.3930 0.0000 0.0000 0.0000 -11.3982 -26.3923 -48.5478 1.8590 8.5660 24.4470 -0.1686 14.9318 -19.2981 1.1583 -6.8327 -19.2206 0.0000 0.0000 0.0000 12.4088 13.0530 -40.7297 -9.2044 -16.9375 56.7943 -4.9954 -9.0354 40.9844 -2.4825 -9.8060 28.3509 14.9883 5.6861 -16.6638 3.1204 5.4173 -7.2264 -3.9727 2.6162 2.3917 4.1746 4.6184 -16.8432 -3.8998 6.4230 27.3318 -1.1852 2.7949 12.0513 -0.0000 -0.0000 0.0000 -14.7382 26.8114 129.4062 19.3482 -29.8491 -5.2030 -0.0000 0.0000 -63.8226 14.0721 -9.2747 -2.3134 -7.1250 0.0000 -0.0000 -9.2088 20.4793 5.4751 -0.0000 -0.0000 0.0000 -70.1636 44.6913 -79.2220 -13.8600 22.5342 -2.7742 0.0000 0.0000 1.0836 -31.5550 -2.7179 1.6680 7.1250 -0.0000 -0.0000 -4.0363 -33.1494 -1.1747
2.5082 15.0365 8.7541 13.7944 26.7924 114.2430 0.0000 0.0000 0.0000 -11.2450 -26.4610 -48.7896 1.7361 8.2932 23.6082 -0.1513 14.4833 -18.8105 1.2483 -7.0839 -19.9641 0.0000 0.0000 0.0000 12.0300 12.9776 -41.0857 -9.6756 -17.2233 58.3984 -5.2172 -8.4468 42.0032 -2.4288 -9.7072 28.0338 14.9646 5.6138 -16.3716 3.0146 5.3759 -7.1992 -4.1047 2.5870 2.2712 4.3148 4.6955 -17.0129 -3.8876 6.4786 27.3671 -1.1924 2.8299 12.1078 -0.0000 -0.0000 0.0000 -12.9123 25.8814 131.3834 18.8797 -29.2690 -4.9719 -0.0000 0.0000 -66.2274 14.3661 -8.0345 -2.0502 -7.1250 0.0000 -0.0000 -9.0417 21.7270 5.1148 -0.0000 -0.0000 0.0000 -69.9110 44.7980 -79.4309 -13.7090 22.3171 -2.7166 0.0000 0.0000 1.8630 -31.5429 -2.7027 1.6579 7.1250 -0.0000 -0.0000 -4.0261 -33.1312 -1.1735
2.4772 15.0395 8.7296 13.2849 26.7281 113.9120 0.0000 0.0000 0.0000 -11.7596 -25.7564 -48.9675 1.6990 8.2088 23.3502 -0.0836 13.4362 -18.0661 1.3130 -7.2581 -20.4822 0.0000 0.0000 0.0000 11.6567 13.0381 -41.4667 -10.1677 -17.5031 60.0475 -5.4769 -7.6329 43.1993 -2.3817 -9.6195 27.7531 14.8979 5.5512 -15.9687 2.9091 5.3705 -7.1357 -4.2117 2.5770 2.1361 4.4426 4.7599 -17.1599 -3.8748 6.5193 27.3733 -1.1999 2.8580 12.1469 -0.0000 -0.0000 0.0000 -11.0025 24.7614 133.5625 18.5183 -28.8158 -4.7965 -0.0000 0.0000 -69.4386 14.7987 -6.6667 -1.7567 -7.1250 0.0000 -0.0000 -8.7841 23.1052 4.6859 -0.0000 -0.0000 0.0000 -69.6500 44.9229 -79.6758 -13.5427 22.0772 -2.6538 0.0000 0.0000 2.6837 -31.5894 -2.6737 1.6431 7.1250 -0.0000 -0.0000 -4.0631 -33.0985 -1.1876
2.4389 15.0415 8.7021 12.6555 26.7077 113.4210 0.0000 0.0000 0.0000 -12.6776 -24.5449 -49.0733 1.7389 8.2997 23.6280 0.0154 11.9830 -17.2549 1.3489 -7.3528 -20.7648 0.0000 0.0000 0.0000 11.3191 13.2343 -41.8717 -10.6686 -17.7691 61.7006 -5.7522 -6.7394 44.4624 -2.3531 -9.5659 27.5819 14.8110 5.5087 -15.4803 2.8118 5.4064 -7.0408 -4.2949 2.5892 1.9953 4.5499 4.8105 -17.3162 -3.8620 6.5481 27.4117 -1.2057 2.8787 12.1994 0.0000 0.0000 0.0000 -9.0131 23.4075 135.9564 18.2915 -28.5288 -4.6876 -0.0000 0.0000 -73.4799 15.3893 -5.1405 -1.4127 -7.1250 0.0000 -0.0000 -8.4216 24.6496 4.1850 0.0000 0.0000 0.0000 -69.3714 45.0657 -79.9074 -13.3666 21.8221 -2.5880 0.0000 0.0000 3.4938 -31.6918 -2.6379 1.6277 7.1250 -0.0000 -0.0000 -4.1452 -33.0592 -1.2156
2.3943 15.0427 8.6693 11.9599 26.7189 112.8550 0.0000 0.0000 0.0000 -13.7555 -23.0931 -49.1789 1.8496 8.5456 24.3839 0.1230 10.2930 -16.4558 1.3677 -7.4016 -20.9108 0.0000 0.0000 0.0000 11.0094 13.5373 -42.3632 -11.1659 -18.0153 63.3193 -6.0151 -5.9310 45.6536 -2.3434 -9.5475 27.5235 14.7138 5.4885 -14.9783 2.7233 5.4743 -6.9356 -4.3573 2.6188 1.8617 4.6327 4.8451 -17.4671 -3.8560 6.5660 27.4805 -1.2116 2.8914 12.2617 -0.0000 -0.0000 0.0000 -6.9626 21.7905 138.5859 18.2167 -28.4337 -4.6520 -0.0000 0.0000 -78.3341 16.2097 -3.5538 -1.0323 -7.1250 0.0000 -0.0000 -7.8924 26.2647 3.6173 -0.0000 -0.0000 0.0000 -69.0784 45.2292 -80.0952 -13.1819 21.5532 -2.5197 0.0000 0.0000 4.2764 -31.8389 -2.5966 1.6115 7.1250 -0.0000 -0.0000 -4.2636 -33.0146 -1.2551
2.3451 15.0435 8.6295 11.2554 26.7520 112.2900 0.0000 0.0000 0.0000 -14.8042 -21.6241 -49.3194 2.0254 8.9187 25.5414 0.2257 8.4785 -15.7182 1.3785 -7.4297 -20.9949 0.0000 0.0000 0.0000 10.7244 13.9000 -42.9851 -11.6457 -18.2368 64.8613 -6.2420 -5.3323 46.6585 -2.3553 -9.5700 27.5951 14.6212 5.4892 -14.5229 2.6468 5.5608 -6.8382 -4.4027 2.6589 1.7453 4.6828 4.8681 -17.6267 -3.8628 6.5847 27.6139 -1.2165 2.8993 12.3508 0.0000 -0.0000 0.0000 -4.8886 19.9025 141.4252 18.2826 -28.5175 -4.6834 -0.0000 0.0000 -83.8876 17.2987 -2.0271 -0.6312 -7.1250 0.0000 -0.0000 -7.1523 27.8332 3.0071 0.0000 -0.0000 0.0000 -68.7753 45.4163 -80.2040 -12.9914 21.2746 -2.4502 0.0000 0.0000 5.0248 -32.0125 -2.5471 1.5915 7.1250 -0.0000 -0.0000 -4.4029 -32.9607 -1.3021
2.2936 15.0437 8.5828 10.5824 26.7849 111.7750 0.0000 0.0000 0.0000 -15.7353 -20.2877 -49.4907 2.2602 9.3882 27.0173 0.3135 6.6387 -15.0552 1.4000 -7.4849 -21.1602 0.0000 0.0000 0.0000 10.4416 14.2761 -43.7554 -12.0896 -18.4283 66.2725 -6.4148 -4.9639 47.4030 -2.3729 -9.6031 27.7009 14.5307 5.5046 -14.1580 2.5823 5.6513 -6.7576 -4.4300 2.7025 1.6574 4.6337 4.8806 -17.8597 -3.7963 6.6013 27.8972 -1.1759 2.9031 12.5083 -0.0000 0.0000 0.0000 -2.8322 17.7828 144.3378 18.4500 -28.7295 -4.7636 -0.0000 0.0000 -89.9047 18.6123 -0.7099 -0.2391 -7.1250 0.0000 -0.0000 -6.2157 29.2055 2.4054 -0.0000 0.0000 0.0000 -68.4665 45.6241 -80.2063 -12.8003 20.9939 -2.3813 0.0000 0.0000 5.7452 -32.1794 -2.4889 1.5652 7.1250 -0.0000 -0.0000 -4.5365 -32.8962 -1.3489
2.2419 15.0430 8.5302 9.9644 26.8190 111.3390 0.0000 0.0000 0.0000 -16.4738 -19.1891 -49.6514 2.5452 9.9197 28.7171 0.3821 4.8731 -14.4917 1.4320 -7.5664 -21.4048 0.0000 0.0000 0.0000 10.1616 14.6366 -44.6742 -12.4791 -18.5859 67.4996 -6.5260 -4.8080 47.8658 -2.3913 -9.6376 27.8110 14.4666 5.5300 -13.8990 2.5286 5.7344 -6.7004 -4.4545 2.7430 1.5987 4.5868 4.8839 -18.0820 -3.7984 6.6285 28.2098 -1.1600 2.9033 12.6801 -0.0000 0.0000 0.0000 -0.8159 15.5295 147.1083 18.6572 -28.9905 -4.8636 -0.0000 0.0000 -96.0038 20.0958 0.3169 0.1159 -7.1250 0.0000 -0.0000 -5.1131 30.2963 1.8419 -0.0000 0.0000 0.0000 -68.1635 45.8542 -80.1038 -12.6145 20.7197 -2.3151 0.0000 0.0000 6.4433 -32.3094 -2.4357 1.5395 7.1250 -0.0000 -0.0000 -4.6400 -32.8366 -1.3865
2.1928 15.0414 8.4760 9.4008 26.8383 110.9870 0.0000 0.0000 0.0000 -17.0304 -18.3664 -49.7663 2.8704 10.4822 30.5527 0.4288 3.2886 -14.0160 1.4846 -7.6980 -21.8005 0.0000 0.0000 0.0000 9.8645 14.9628 -45.7140 -12.7916 -18.7056 68.4768 -6.5779 -4.8073 48.0691 -2.4028 -9.6589 27.8792 14.4201 5.5603 -13.7427 2.4806 5.8056 -6.6688 -4.4779 2.7780 1.5649 4.5146 4.8767 -18.3064 -3.8366 6.6629 28.5460 -1.1524 2.8990 12.8643 -0.0000 0.0000 0.0000 1.1561 13.2388 149.5434 18.8480 -29.2293 -4.9564 -0.0000 0.0000 -101.9040 21.6286 0.9738 0.3861 -7.1250 0.0000 -0.0000 -3.9345 31.0136 1.3476 -0.0000 0.0000 0.0000 -67.8639 46.1025 -79.8965 -12.4438 20.4668 -2.2551 0.0000 0.0000 7.1349 -32.3466 -2.3848 1.5095 7.1250 -0.0000 -0.0000 -4.6681 -32.7774 -1.4016
2.1469 15.0382 8.4222 8.8718 26.8806 110.6860 0.0000 0.0000 0.0000 -17.3657 -17.8116 -49.7549 3.2253 11.0512 32.4527 0.4599 1.9747 -13.6817 1.5370 -7.8265 -22.1884 0.0000 0.0000 0.0000 9.5929 15.2774 -46.8209 -13.0130 -18.7869 69.1659 -6.5797 -4.8651 48.0669 -2.3990 -9.6520 27.8569 14.4215 5.6003 -13.6515 2.4455 5.8737 -6.6550 -4.5095 2.8110 1.5475 4.4430 4.8611 -18.5219 -3.9292 6.7044 28.8796 -1.1649 2.8910 13.0500 0.0000 -0.0000 0.0000 3.0917 11.0131 151.4203 18.9726 -29.3846 -5.0174 -0.0000 0.0000 -107.3100 23.1729 1.3630 0.5834 -7.1250 0.0000 -0.0000 -2.7207 31.4554 0.9020 0.0000 -0.0000 0.0000 -67.5395 46.3540 -79.5146 -12.3039 20.2589 -2.2064 0.0000 0.0000 7.7989 -32.2886 -2.3801 1.5032 7.1250 -0.0000 -0.0000 -4.6208 -32.7706 -1.3881
2.1041 15.0331 8.3700 8.3537 26.9235 110.4090 0.0000 0.0000 0.0000 -17.5550 -17.4745 -49.5862 3.6012 11.6099 34.3654 0.4816 0.9609 -13.4922 1.5823 -7.9357 -22.5190 0.0000 0.0000 0.0000 9.3211 15.5867 -47.9585 -13.1318 -18.8292 69.5343 -6.5420 -4.9610 47.9040 -2.3826 -9.6212 27.7585 14.4372 5.6462 -13.6011 2.4152 5.9421 -6.6539 -4.5410 2.8442 1.5386 4.3658 4.8347 -18.7162 -4.0478 6.7416 29.1752 -1.1880 2.8775 13.2179 -0.0000 -0.0000 0.0000 4.9991 8.9237 152.6367 19.0072 -29.4276 -5.0344 -0.0000 0.0000 -112.0360 24.7332 1.4961 0.6891 -7.1250 0.0000 -0.0000 -1.4764 31.6248 0.4831 -0.0000 -0.0000 0.0000 -67.1672 46.5994 -78.9372 -12.2067 20.1139 -2.1728 0.0000 0.0000 8.4309 -32.1303 -2.4256 1.5226 7.1250 -0.0000 -0.0000 -4.4942 -32.8206 -1.3444
2.0634 15.0260 8.3201 7.8378 26.9966 110.1300 0.0000 0.0000 0.0000 -17.6352 -17.2607 -49.2545 3.9908 12.1482 36.2582 0.4995 0.2199 -13.4343 1.6162 -8.0163 -22.7635 0.0000 0.0000 0.0000 9.0951 15.9087 -49.0769 -13.1398 -18.8321 69.5592 -6.4732 -5.1101 47.6105 -2.3614 -9.5815 27.6319 14.4790 5.7029 -13.5598 2.3969 6.0207 -6.6578 -4.5713 2.8821 1.5315 4.2312 4.8011 -18.9464 -4.1057 6.7700 29.5030 -1.1790 2.8605 13.4027 -0.0000 0.0000 0.0000 6.8773 7.0099 153.0769 18.9393 -29.3432 -5.0011 -0.0000 0.0000 -115.9970 26.3435 1.5150 0.7501 -7.1250 0.0000 -0.0000 -0.1857 31.6702 0.0605 -0.0000 0.0000 0.0000 -66.7069 46.8207 -78.1036 -12.1631 20.0488 -2.1579 0.0000 0.0000 9.0061 -31.9027 -2.5017 1.5565 7.1250 -0.0000 -0.0000 -4.3121 -32.9047 -1.2809
